<svg width="492" height="492" viewBox="0 0 492 492" fill="none" xmlns="http://www.w3.org/2000/svg">
<path fill-rule="evenodd" clip-rule="evenodd" d="M346.894 22.5472C343.645 21.0469 340 23.4612 340 27.0395V465.388C340 468.985 343.676 471.402 346.934 469.878C412.651 439.14 491 369.585 491 245C491 141.385 424.482 58.3792 346.894 22.5472ZM381.068 405.224C378.011 407.945 373.5 405.742 373.5 401.65V92.4075C373.5 88.401 377.86 86.1818 380.941 88.7435C400.79 105.25 453.5 157.335 453.5 245C453.5 332.477 401.015 387.479 381.068 405.224Z" fill="black"/>
<path d="M312.626 10.9325C314.663 11.5416 316 13.424 316 15.5501V209.008C316 212.929 311.692 215.324 308.361 213.255L285.362 198.967C283.893 198.055 283 196.449 283 194.72V46.768C283 44.3096 281.213 42.2193 278.78 41.8719C270.891 40.7459 253.552 38.5 240.75 38.5C227.654 38.5 208.929 42.0253 200.899 43.6715C198.608 44.1412 197 46.1614 197 48.4999V190.651C197 192.417 197.932 194.052 199.451 194.952L313.548 262.548C315.068 263.448 316 265.083 316 266.849V477.841C316 480.02 314.602 481.935 312.5 482.505C303.14 485.041 275.813 491.5 240.25 491.5C204.201 491.5 176.614 482.872 167.626 479.674C165.719 478.995 164.5 477.228 164.5 475.203C164.487 414.804 164.136 307.863 164.03 276.874C164.017 273.017 168.183 270.653 171.519 272.587C178.315 276.526 188.203 282.274 194.576 286.055C196.087 286.951 197 288.575 197 290.331V445C197 447.339 198.608 449.359 200.899 449.828C208.929 451.475 227.654 455 240.75 455C253.559 455 271.751 453.314 280.056 452.47C282.588 452.212 284.5 450.076 284.5 447.531V297.811C284.5 296.065 283.59 294.446 282.098 293.539L166.901 223.461C165.41 222.554 164.5 220.935 164.5 219.189V18.4374C164.5 16.3668 165.758 14.5224 167.716 13.8489C177.45 10.5005 207.917 1 240.25 1C275.975 1 303.389 8.16982 312.626 10.9325Z" fill="black"/>
<path d="M48.3691 101C76.7087 60.6055 116.657 36.8219 132.568 28.4429C135.783 26.7499 139.475 29.0636 139.453 32.6969C139.276 61.6365 138.657 163.978 138.525 197.557C138.509 201.468 134.211 203.861 130.879 201.81L108.379 187.964C106.901 187.054 106 185.442 106 183.706V103.476C106 99.109 100.926 96.9579 97.9253 100.131C89.2411 109.317 75.2356 125.428 64.5 144C52.9226 164.028 46.2683 185.599 43.9457 193.934C43.3559 196.05 44.2911 198.264 46.1821 199.383L138.5 254V467.781C82.8999 441.206 48.8839 398.772 38.826 380.877C18.7046 347.2 3.26161 308.029 1.22771 268.327C1.02887 264.446 5.23986 262.044 8.57248 264.043L39.0237 282.314C40.2778 283.067 41.1394 284.324 41.424 285.759C42.9577 293.49 48.8617 319.86 62.5 346C70.5585 361.445 87.4108 381.175 97.612 392.469C100.623 395.803 106 393.649 106 389.157V279.344C106 277.581 105.113 275.973 103.598 275.072C90.8656 267.503 30.8981 231.857 5.39706 216.719C3.63971 215.676 2.70486 213.712 3.08462 211.704C5.64406 198.171 17.1616 145.482 48.3691 101Z" fill="black"/>
<path d="M138.5 254L46.1821 199.383C44.2911 198.264 43.3559 196.05 43.9457 193.934C46.2683 185.599 52.9226 164.028 64.5 144C75.2356 125.428 89.2411 109.317 97.9253 100.131C100.926 96.9579 106 99.109 106 103.476V183.706C106 185.442 106.901 187.054 108.379 187.964L130.879 201.81C134.211 203.861 138.509 201.468 138.525 197.557C138.657 163.978 139.276 61.6365 139.453 32.6969C139.475 29.0636 135.783 26.7499 132.568 28.4429C116.657 36.8219 76.7087 60.6055 48.3691 101C17.1616 145.482 5.64406 198.171 3.08462 211.704C2.70486 213.712 3.63971 215.676 5.39706 216.719C30.8981 231.857 90.8656 267.503 103.598 275.072C105.113 275.973 106 277.581 106 279.344V389.157C106 393.649 100.623 395.803 97.612 392.469C87.4108 381.175 70.5585 361.445 62.5 346C48.8617 319.86 42.9577 293.49 41.424 285.759C41.1394 284.324 40.2778 283.067 39.0237 282.314L8.57248 264.043C5.23986 262.044 1.02887 264.446 1.22771 268.327C3.26161 308.029 18.7046 347.2 38.826 380.877C48.8839 398.772 82.8999 441.206 138.5 467.781M138.5 254C138.5 254 138.5 384.294 138.5 467.781M138.5 254V467.781M491 245C491 369.585 412.651 439.14 346.934 469.878C343.676 471.402 340 468.985 340 465.388V27.0395C340 23.4612 343.645 21.0469 346.894 22.5472C424.482 58.3792 491 141.385 491 245ZM453.5 245C453.5 332.477 401.015 387.479 381.068 405.224C378.011 407.945 373.5 405.742 373.5 401.65V92.4075C373.5 88.401 377.86 86.1818 380.941 88.7435C400.79 105.25 453.5 157.335 453.5 245ZM240.25 1C207.917 1 177.45 10.5005 167.716 13.8489C165.758 14.5224 164.5 16.3668 164.5 18.4374V219.189C164.5 220.935 165.41 222.554 166.901 223.461L282.098 293.539C283.59 294.446 284.5 296.065 284.5 297.811V447.531C284.5 450.076 282.588 452.212 280.056 452.47C271.751 453.314 253.559 455 240.75 455C227.654 455 208.929 451.475 200.899 449.828C198.608 449.359 197 447.339 197 445V290.331C197 288.575 196.087 286.951 194.576 286.055C188.203 282.274 178.315 276.526 171.519 272.587C168.183 270.653 164.017 273.017 164.03 276.874C164.136 307.863 164.487 414.804 164.5 475.203C164.5 477.228 165.719 478.995 167.626 479.674C176.614 482.872 204.201 491.5 240.25 491.5C275.813 491.5 303.14 485.041 312.5 482.505C314.602 481.935 316 480.02 316 477.841V266.849C316 265.083 315.068 263.448 313.548 262.548L199.451 194.952C197.932 194.052 197 192.417 197 190.651V48.4999C197 46.1614 198.608 44.1412 200.899 43.6715C208.929 42.0253 227.654 38.5 240.75 38.5C253.552 38.5 270.891 40.7459 278.78 41.8719C281.213 42.2193 283 44.3096 283 46.768V194.72C283 196.449 283.893 198.055 285.362 198.967L308.361 213.255C311.692 215.324 316 212.929 316 209.008V15.5501C316 13.424 314.663 11.5416 312.626 10.9325C303.389 8.16982 275.975 1 240.25 1Z" stroke="black"/>
</svg>
